<?xml version="1.0" encoding="utf-8"?>
<!-- Generator: Adobe Illustrator 24.0.1, SVG Export Plug-In . SVG Version: 6.00 Build 0)  -->
<svg version="1.1" id="Layer_1" xmlns="http://www.w3.org/2000/svg" xmlns:xlink="http://www.w3.org/1999/xlink" x="0px" y="0px"
	 viewBox="0 0 800 800" style="enable-background:new 0 0 800 800;" xml:space="preserve">
<style type="text/css">
	.st0{fill:#FFFFFF;}
	.st1{fill:#6B6B6A;}
</style>
<title>Chessboard_32x32cm_white_blue_v2</title>
<g id="LightSquares">
	<rect id="B8" x="100" y="0" class="st0" width="100" height="100"/>
	<rect id="D8" x="300" y="0" class="st0" width="100" height="100"/>
	<rect id="F8" x="500" y="0" class="st0" width="100" height="100"/>
	<rect id="H8" x="700" y="0" class="st0" width="100" height="100"/>
	<rect id="A7" x="0" y="100" class="st0" width="100" height="100"/>
	<rect id="C7" x="200" y="100" class="st0" width="100" height="100"/>
	<rect id="E7" x="400" y="100" class="st0" width="100" height="100"/>
	<rect id="G7" x="600" y="100" class="st0" width="100" height="100"/>
	<rect id="B6" x="100" y="200" class="st0" width="100" height="100"/>
	<rect id="D6" x="300" y="200" class="st0" width="100" height="100"/>
	<rect id="F6" x="500" y="200" class="st0" width="100" height="100"/>
	<rect id="H6" x="700" y="200" class="st0" width="100" height="100"/>
	<rect id="A5" x="0" y="300" class="st0" width="100" height="100"/>
	<rect id="C5" x="200" y="300" class="st0" width="100" height="100"/>
	<rect id="E5" x="400" y="300" class="st0" width="100" height="100"/>
	<rect id="G5" x="600" y="300" class="st0" width="100" height="100"/>
	<rect id="B4" x="100" y="400" class="st0" width="100" height="100"/>
	<rect id="D4" x="300" y="400" class="st0" width="100" height="100"/>
	<rect id="F4" x="500" y="400" class="st0" width="100" height="100"/>
	<rect id="H4" x="700" y="400" class="st0" width="100" height="100"/>
	<rect id="A3" x="0" y="500" class="st0" width="100" height="100"/>
	<rect id="C3" x="200" y="500" class="st0" width="100" height="100"/>
	<rect id="E3" x="400" y="500" class="st0" width="100" height="100"/>
	<rect id="G3" x="600" y="500" class="st0" width="100" height="100"/>
	<rect id="B2" x="100" y="600" class="st0" width="100" height="100"/>
	<rect id="D2" x="300" y="600" class="st0" width="100" height="100"/>
	<rect id="F2" x="500" y="600" class="st0" width="100" height="100"/>
	<rect id="H2" x="700" y="600" class="st0" width="100" height="100"/>
	<rect id="A1" x="0" y="700" class="st0" width="100" height="100"/>
	<rect id="C1" x="200" y="700" class="st0" width="100" height="100"/>
	<rect id="E1" x="400" y="700" class="st0" width="100" height="100"/>
	<rect id="G1" x="600" y="700" class="st0" width="100" height="100"/>
</g>
<g id="DarkSquares">
	<rect id="A8" x="0" y="0" class="st1" width="100" height="100"/>
	<rect id="C8" x="200" y="0" class="st1" width="100" height="100"/>
	<rect id="E8" x="400" y="0" class="st1" width="100" height="100"/>
	<rect id="G8" x="600" y="0" class="st1" width="100" height="100"/>
	<rect id="B7" x="100" y="100" class="st1" width="100" height="100"/>
	<rect id="D7" x="300" y="100" class="st1" width="100" height="100"/>
	<rect id="F7" x="500" y="100" class="st1" width="100" height="100"/>
	<rect id="H7" x="700" y="100" class="st1" width="100" height="100"/>
	<rect id="A6" x="0" y="200" class="st1" width="100" height="100"/>
	<rect id="C6" x="200" y="200" class="st1" width="100" height="100"/>
	<rect id="E6" x="400" y="200" class="st1" width="100" height="100"/>
	<rect id="G6" x="600" y="200" class="st1" width="100" height="100"/>
	<rect id="B5" x="100" y="300" class="st1" width="100" height="100"/>
	<rect id="D5" x="300" y="300" class="st1" width="100" height="100"/>
	<rect id="F5" x="500" y="300" class="st1" width="100" height="100"/>
	<rect id="H5" x="700" y="300" class="st1" width="100" height="100"/>
	<rect id="A4" x="0" y="400" class="st1" width="100" height="100"/>
	<rect id="C4" x="200" y="400" class="st1" width="100" height="100"/>
	<rect id="E4" x="400" y="400" class="st1" width="100" height="100"/>
	<rect id="G4" x="600" y="400" class="st1" width="100" height="100"/>
	<rect id="B3" x="100" y="500" class="st1" width="100" height="100"/>
	<rect id="D3" x="300" y="500" class="st1" width="100" height="100"/>
	<rect id="F3" x="500" y="500" class="st1" width="100" height="100"/>
	<rect id="H3" x="700" y="500" class="st1" width="100" height="100"/>
	<rect id="A2" x="0" y="600" class="st1" width="100" height="100"/>
	<rect id="C2" x="200" y="600" class="st1" width="100" height="100"/>
	<rect id="E2" x="400" y="600" class="st1" width="100" height="100"/>
	<rect id="G2" x="600" y="600" class="st1" width="100" height="100"/>
	<rect id="B1" x="100" y="700" class="st1" width="100" height="100"/>
	<rect id="D1" x="300" y="700" class="st1" width="100" height="100"/>
	<rect id="F1" x="500" y="700" class="st1" width="100" height="100"/>
	<rect id="H1" x="700" y="700" class="st1" width="100" height="100"/>
</g>
</svg>
