<svg id="Layer_1" data-name="Layer 1" xmlns="http://www.w3.org/2000/svg" width="32cm" height="32cm" viewBox="0 0 907.09 907.09">
  <defs>
    <style>
      .cls-1 {
        fill: #fff;
      }

      .cls-2 {
        fill: #009fe3;
      }
    </style>
  </defs>
  <title>Chessboard_32x32cm_white_blue_v2</title>
  <g>
    <rect id="B8" class="cls-1" x="113.39" width="113.39" height="113.39"/>
    <rect id="D8" class="cls-1" x="340.16" width="113.39" height="113.39"/>
    <rect id="F8" class="cls-1" x="566.93" width="113.39" height="113.39"/>
    <rect id="H8" class="cls-1" x="793.7" width="113.39" height="113.39"/>
    <rect id="A7" class="cls-1" y="113.39" width="113.39" height="113.39"/>
    <rect id="C7" class="cls-1" x="226.77" y="113.39" width="113.39" height="113.39"/>
    <rect id="E7" class="cls-1" x="453.54" y="113.39" width="113.39" height="113.39"/>
    <rect id="G7" class="cls-1" x="680.31" y="113.39" width="113.39" height="113.39"/>
    <rect id="B6" class="cls-1" x="113.39" y="226.77" width="113.39" height="113.39"/>
    <rect id="D6" class="cls-1" x="340.16" y="226.77" width="113.39" height="113.39"/>
    <rect id="F6" class="cls-1" x="566.93" y="226.77" width="113.39" height="113.39"/>
    <rect id="H6" class="cls-1" x="793.7" y="226.77" width="113.39" height="113.39"/>
    <rect id="A5" class="cls-1" y="340.16" width="113.39" height="113.39"/>
    <rect id="C5" class="cls-1" x="226.77" y="340.16" width="113.39" height="113.39"/>
    <rect id="E5" class="cls-1" x="453.54" y="340.16" width="113.39" height="113.39"/>
    <rect id="G5" class="cls-1" x="680.31" y="340.16" width="113.39" height="113.39"/>
    <rect id="B4" class="cls-1" x="113.39" y="453.54" width="113.39" height="113.39"/>
    <rect id="D4" class="cls-1" x="340.16" y="453.54" width="113.39" height="113.39"/>
    <rect id="F4" class="cls-1" x="566.93" y="453.54" width="113.39" height="113.39"/>
    <rect id="H4" class="cls-1" x="793.7" y="453.54" width="113.39" height="113.39"/>
    <rect id="A3" class="cls-1" y="566.93" width="113.39" height="113.39"/>
    <rect id="C3" class="cls-1" x="226.77" y="566.93" width="113.39" height="113.39"/>
    <rect id="E3" class="cls-1" x="453.54" y="566.93" width="113.39" height="113.39"/>
    <rect id="G3" class="cls-1" x="680.31" y="566.93" width="113.39" height="113.39"/>
    <rect id="B2" class="cls-1" x="113.39" y="680.31" width="113.39" height="113.39"/>
    <rect id="D2" class="cls-1" x="340.16" y="680.31" width="113.39" height="113.39"/>
    <rect id="F2" class="cls-1" x="566.93" y="680.31" width="113.39" height="113.39"/>
    <rect id="H2" class="cls-1" x="793.7" y="680.31" width="113.39" height="113.39"/>
    <rect id="A1" class="cls-1" y="793.7" width="113.39" height="113.39"/>
    <rect id="C1" class="cls-1" x="226.77" y="793.7" width="113.39" height="113.39"/>
    <rect id="E1" class="cls-1" x="453.54" y="793.7" width="113.39" height="113.39"/>
    <rect id="G1" class="cls-1" x="680.31" y="793.7" width="113.39" height="113.39"/>
  </g>
  <g>
    <rect id="A8" class="cls-2" width="113.39" height="113.39"/>
    <rect id="C8" class="cls-2" x="226.77" width="113.39" height="113.39"/>
    <rect id="E8" class="cls-2" x="453.54" width="113.39" height="113.39"/>
    <rect id="G8" class="cls-2" x="680.31" width="113.39" height="113.39"/>
    <rect id="B7" class="cls-2" x="113.39" y="113.39" width="113.39" height="113.39"/>
    <rect id="D7" class="cls-2" x="340.16" y="113.39" width="113.39" height="113.39"/>
    <rect id="F7" class="cls-2" x="566.93" y="113.39" width="113.39" height="113.39"/>
    <rect id="H7" class="cls-2" x="793.7" y="113.39" width="113.39" height="113.39"/>
    <rect id="A6" class="cls-2" y="226.77" width="113.39" height="113.39"/>
    <rect id="C6" class="cls-2" x="226.77" y="226.77" width="113.39" height="113.39"/>
    <rect id="E6" class="cls-2" x="453.54" y="226.77" width="113.39" height="113.39"/>
    <rect id="G6" class="cls-2" x="680.31" y="226.77" width="113.39" height="113.39"/>
    <rect id="B5" class="cls-2" x="113.39" y="340.16" width="113.39" height="113.39"/>
    <rect id="D5" class="cls-2" x="340.16" y="340.16" width="113.39" height="113.39"/>
    <rect id="F5" class="cls-2" x="566.93" y="340.16" width="113.39" height="113.39"/>
    <rect id="H5" class="cls-2" x="793.7" y="340.16" width="113.39" height="113.39"/>
    <rect id="A4" class="cls-2" y="453.54" width="113.39" height="113.39"/>
    <rect id="C4" class="cls-2" x="226.77" y="453.54" width="113.39" height="113.39"/>
    <rect id="E4" class="cls-2" x="453.54" y="453.54" width="113.39" height="113.39"/>
    <rect id="G4" class="cls-2" x="680.31" y="453.54" width="113.39" height="113.39"/>
    <rect id="B3" class="cls-2" x="113.39" y="566.93" width="113.39" height="113.39"/>
    <rect id="D3" class="cls-2" x="340.16" y="566.93" width="113.39" height="113.39"/>
    <rect id="F3" class="cls-2" x="566.93" y="566.93" width="113.39" height="113.39"/>
    <rect id="H3" class="cls-2" x="793.7" y="566.93" width="113.39" height="113.39"/>
    <rect id="A2" class="cls-2" y="680.31" width="113.39" height="113.39"/>
    <rect id="C2" class="cls-2" x="226.77" y="680.31" width="113.39" height="113.39"/>
    <rect id="E2" class="cls-2" x="453.54" y="680.31" width="113.39" height="113.39"/>
    <rect id="G2" class="cls-2" x="680.31" y="680.31" width="113.39" height="113.39"/>
    <rect id="B1" class="cls-2" x="113.39" y="793.7" width="113.39" height="113.39"/>
    <rect id="D1" class="cls-2" x="340.16" y="793.7" width="113.39" height="113.39"/>
    <rect id="F1" class="cls-2" x="566.93" y="793.7" width="113.39" height="113.39"/>
    <rect id="H1" class="cls-2" x="793.7" y="793.7" width="113.39" height="113.39"/>
  </g>
</svg>
